<svg width="201" height="76" viewBox="0 0 201 76" fill="none" xmlns="http://www.w3.org/2000/svg">
<rect x="0.5" y="0.5" width="200" height="75" stroke="white"/>
<line x1="1" y1="59.5" x2="201" y2="59.5" stroke="white"/>
<line x1="1" y1="16.5" x2="200" y2="16.5" stroke="white"/>
<line x1="77.5" y1="60" x2="77.5" y2="75" stroke="white"/>
<path d="M25.0597 51.35C23.123 51.35 21.5714 50.6733 20.4047 49.32C19.238 47.9667 18.6547 46.135 18.6547 43.825V38.925C18.6547 36.6383 19.238 34.8183 20.4047 33.465C21.5714 32.0883 23.123 31.4 25.0597 31.4C26.6464 31.4 27.8947 31.8667 28.8047 32.8C29.7147 33.71 30.1697 34.9933 30.1697 36.65L28.9447 35.425H30.1697L29.9947 30.7V25.45H35.2447V51H30.1697V47.325H28.9447L30.1697 46.1C30.1697 47.7567 29.7147 49.0517 28.8047 49.985C27.8947 50.895 26.6464 51.35 25.0597 51.35ZM26.9497 46.8C27.9064 46.8 28.653 46.5317 29.1897 45.995C29.7264 45.435 29.9947 44.6533 29.9947 43.65V39.1C29.9947 38.0967 29.7264 37.3267 29.1897 36.79C28.653 36.23 27.9064 35.95 26.9497 35.95C25.9697 35.95 25.2114 36.23 24.6747 36.79C24.1614 37.3267 23.9047 38.0967 23.9047 39.1V43.65C23.9047 44.6533 24.1614 45.435 24.6747 45.995C25.2114 46.5317 25.9697 46.8 26.9497 46.8ZM48.041 51.35C46.3377 51.35 44.856 51.035 43.596 50.405C42.336 49.7517 41.356 48.8533 40.656 47.71C39.9793 46.5433 39.641 45.19 39.641 43.65V39.1C39.641 37.56 39.9793 36.2183 40.656 35.075C41.356 33.9083 42.336 33.01 43.596 32.38C44.856 31.7267 46.3377 31.4 48.041 31.4C49.7677 31.4 51.2493 31.7267 52.486 32.38C53.746 33.01 54.7144 33.9083 55.391 35.075C56.091 36.2183 56.441 37.56 56.441 39.1V43.65C56.441 45.19 56.091 46.5433 55.391 47.71C54.7144 48.8533 53.746 49.7517 52.486 50.405C51.2493 51.035 49.7677 51.35 48.041 51.35ZM48.041 46.8C49.0677 46.8 49.8493 46.5317 50.386 45.995C50.9227 45.435 51.191 44.6533 51.191 43.65V39.1C51.191 38.0733 50.9227 37.2917 50.386 36.755C49.8493 36.2183 49.0677 35.95 48.041 35.95C47.0377 35.95 46.256 36.2183 45.696 36.755C45.1593 37.2917 44.891 38.0733 44.891 39.1V43.65C44.891 44.6533 45.1593 45.435 45.696 45.995C46.256 46.5317 47.0377 46.8 48.041 46.8ZM71.1273 51C69.1673 51 67.6273 50.44 66.5073 49.32C65.3873 48.2 64.8273 46.66 64.8273 44.7V36.475H59.7523V31.75H64.8273V26.325H70.0773V31.75H77.2523V36.475H70.0773V44.7C70.0773 45.75 70.6023 46.275 71.6523 46.275H76.9023V51H71.1273ZM103.3 57.3V52.4H108.9C109.857 52.4 110.592 52.1317 111.105 51.595C111.618 51.0817 111.875 50.3583 111.875 49.425V36.65H104.35V31.75H117.125V49.6C117.125 51.98 116.425 53.8583 115.025 55.235C113.625 56.6117 111.712 57.3 109.285 57.3H103.3ZM114.325 28.705C113.368 28.705 112.598 28.46 112.015 27.97C111.455 27.48 111.175 26.815 111.175 25.975C111.175 25.135 111.455 24.47 112.015 23.98C112.598 23.49 113.368 23.245 114.325 23.245C115.282 23.245 116.04 23.49 116.6 23.98C117.183 24.47 117.475 25.135 117.475 25.975C117.475 26.815 117.183 27.48 116.6 27.97C116.04 28.46 115.282 28.705 114.325 28.705ZM131.986 51.35C129.396 51.35 127.366 50.65 125.896 49.25C124.45 47.85 123.726 45.9367 123.726 43.51V31.75H128.976V43.475C128.976 44.5483 129.233 45.3767 129.746 45.96C130.26 46.52 131.006 46.8 131.986 46.8C132.943 46.8 133.678 46.52 134.191 45.96C134.728 45.3767 134.996 44.5483 134.996 43.475V31.75H140.246V43.51C140.246 45.96 139.511 47.885 138.041 49.285C136.571 50.6617 134.553 51.35 131.986 51.35ZM150.488 51.35C148.551 51.35 147.011 50.825 145.868 49.775C144.748 48.725 144.188 47.3017 144.188 45.505C144.188 43.5683 144.853 42.0867 146.183 41.06C147.536 40.01 149.473 39.485 151.993 39.485H155.983V38.05C155.983 37.3033 155.714 36.7083 155.178 36.265C154.664 35.8217 153.964 35.6 153.078 35.6C152.261 35.6 151.584 35.7867 151.048 36.16C150.511 36.5333 150.184 37.0467 150.068 37.7H144.993C145.203 35.7633 146.043 34.235 147.513 33.115C149.006 31.9717 150.919 31.4 153.253 31.4C155.703 31.4 157.639 32.0067 159.063 33.22C160.509 34.41 161.233 36.02 161.233 38.05V51H156.158V47.85H155.318L156.193 46.625C156.193 48.0717 155.668 49.2267 154.618 50.09C153.591 50.93 152.214 51.35 150.488 51.35ZM152.448 47.5C153.474 47.5 154.314 47.2317 154.968 46.695C155.644 46.135 155.983 45.4117 155.983 44.525V42.46H152.098C151.304 42.46 150.663 42.6933 150.173 43.16C149.683 43.6033 149.438 44.1983 149.438 44.945C149.438 45.7383 149.706 46.3683 150.243 46.835C150.779 47.2783 151.514 47.5 152.448 47.5ZM165.909 51V46.45L175.429 36.3H166.259V31.75H181.624V36.3L172.104 46.45H182.009V51H165.909Z" fill="white"/>
<path d="M92.7775 63.2727H94.0389L97.0048 70.517H97.1071L100.073 63.2727H101.334V72H100.346V65.3693H100.26L97.5332 72H96.5787L93.8514 65.3693H93.7662V72H92.7775V63.2727ZM103.811 72H102.703L105.908 63.2727H106.999L110.203 72H109.095L106.487 64.6534H106.419L103.811 72ZM104.22 68.5909H108.686V69.5284H104.22V68.5909ZM114.256 72H111.563V63.2727H114.375C115.222 63.2727 115.946 63.4474 116.548 63.7969C117.151 64.1435 117.612 64.642 117.933 65.2926C118.254 65.9403 118.415 66.7159 118.415 67.6193C118.415 68.5284 118.253 69.3111 117.929 69.9673C117.605 70.6207 117.134 71.1236 116.514 71.4759C115.895 71.8253 115.142 72 114.256 72ZM112.619 71.0625H114.188C114.909 71.0625 115.507 70.9233 115.982 70.6449C116.456 70.3665 116.81 69.9702 117.043 69.456C117.276 68.9418 117.392 68.3295 117.392 67.6193C117.392 66.9148 117.277 66.3082 117.047 65.7997C116.817 65.2884 116.473 64.8963 116.016 64.6236C115.558 64.348 114.989 64.2102 114.307 64.2102H112.619V71.0625ZM120.188 72V63.2727H125.455V64.2102H121.244V67.1591H125.182V68.0966H121.244V71.0625H125.523V72H120.188ZM131.791 63.2727V72H130.735V63.2727H131.791ZM140.831 63.2727V72H139.808L135.052 65.1477H134.967V72H133.91V63.2727H134.933L139.706 70.142H139.791V63.2727H140.831ZM146.32 72V63.2727H149.372C149.98 63.2727 150.481 63.3778 150.876 63.5881C151.271 63.7955 151.565 64.0753 151.758 64.4276C151.951 64.777 152.048 65.1648 152.048 65.5909C152.048 65.9659 151.981 66.2756 151.847 66.5199C151.717 66.7642 151.544 66.9574 151.328 67.0994C151.115 67.2415 150.883 67.3466 150.633 67.4148V67.5C150.9 67.517 151.169 67.6108 151.438 67.7812C151.708 67.9517 151.934 68.196 152.116 68.5142C152.298 68.8324 152.389 69.2216 152.389 69.6818C152.389 70.1193 152.289 70.5128 152.09 70.8622C151.892 71.2116 151.578 71.4886 151.149 71.6932C150.72 71.8977 150.161 72 149.474 72H146.32ZM147.377 71.0625H149.474C150.164 71.0625 150.654 70.929 150.944 70.6619C151.237 70.392 151.383 70.0653 151.383 69.6818C151.383 69.3864 151.308 69.1136 151.157 68.8636C151.007 68.6108 150.792 68.4091 150.514 68.2585C150.235 68.1051 149.906 68.0284 149.525 68.0284H147.377V71.0625ZM147.377 67.108H149.338C149.656 67.108 149.943 67.0455 150.198 66.9205C150.457 66.7955 150.661 66.6193 150.812 66.392C150.965 66.1648 151.042 65.8977 151.042 65.5909C151.042 65.2074 150.909 64.8821 150.642 64.6151C150.374 64.3452 149.951 64.2102 149.372 64.2102H147.377V67.108ZM154.125 72V63.2727H157.074C157.756 63.2727 158.316 63.3892 158.753 63.6222C159.191 63.8523 159.514 64.169 159.725 64.5724C159.935 64.9759 160.04 65.4347 160.04 65.9489C160.04 66.4631 159.935 66.919 159.725 67.3168C159.514 67.7145 159.192 68.027 158.757 68.2543C158.323 68.4787 157.767 68.5909 157.091 68.5909H154.705V67.6364H157.057C157.523 67.6364 157.898 67.5682 158.182 67.4318C158.469 67.2955 158.676 67.1023 158.804 66.8523C158.935 66.5994 159 66.2983 159 65.9489C159 65.5994 158.935 65.294 158.804 65.0327C158.673 64.7713 158.465 64.5696 158.178 64.4276C157.891 64.2827 157.512 64.2102 157.04 64.2102H155.182V72H154.125ZM158.233 68.0795L160.381 72H159.154L157.04 68.0795H158.233ZM162.159 72H161.051L164.256 63.2727H165.346L168.551 72H167.443L164.835 64.6534H164.767L162.159 72ZM162.568 68.5909H167.034V69.5284H162.568V68.5909ZM169.621 72V71.233L174.325 64.2102H169.569V63.2727H175.586V64.0398L170.882 71.0625H175.638V72H169.621ZM178.467 63.2727V72H177.41V63.2727H178.467ZM180.586 72V63.2727H181.643V71.0625H185.7V72H180.586Z" fill="black" fill-opacity="0.95"/>
<path d="M92.7775 63.2727H94.0389L97.0048 70.517H97.1071L100.073 63.2727H101.334V72H100.346V65.3693H100.26L97.5332 72H96.5787L93.8514 65.3693H93.7662V72H92.7775V63.2727ZM103.811 72H102.703L105.908 63.2727H106.999L110.203 72H109.095L106.487 64.6534H106.419L103.811 72ZM104.22 68.5909H108.686V69.5284H104.22V68.5909ZM114.256 72H111.563V63.2727H114.375C115.222 63.2727 115.946 63.4474 116.548 63.7969C117.151 64.1435 117.612 64.642 117.933 65.2926C118.254 65.9403 118.415 66.7159 118.415 67.6193C118.415 68.5284 118.253 69.3111 117.929 69.9673C117.605 70.6207 117.134 71.1236 116.514 71.4759C115.895 71.8253 115.142 72 114.256 72ZM112.619 71.0625H114.188C114.909 71.0625 115.507 70.9233 115.982 70.6449C116.456 70.3665 116.81 69.9702 117.043 69.456C117.276 68.9418 117.392 68.3295 117.392 67.6193C117.392 66.9148 117.277 66.3082 117.047 65.7997C116.817 65.2884 116.473 64.8963 116.016 64.6236C115.558 64.348 114.989 64.2102 114.307 64.2102H112.619V71.0625ZM120.188 72V63.2727H125.455V64.2102H121.244V67.1591H125.182V68.0966H121.244V71.0625H125.523V72H120.188ZM131.791 63.2727V72H130.735V63.2727H131.791ZM140.831 63.2727V72H139.808L135.052 65.1477H134.967V72H133.91V63.2727H134.933L139.706 70.142H139.791V63.2727H140.831ZM146.32 72V63.2727H149.372C149.98 63.2727 150.481 63.3778 150.876 63.5881C151.271 63.7955 151.565 64.0753 151.758 64.4276C151.951 64.777 152.048 65.1648 152.048 65.5909C152.048 65.9659 151.981 66.2756 151.847 66.5199C151.717 66.7642 151.544 66.9574 151.328 67.0994C151.115 67.2415 150.883 67.3466 150.633 67.4148V67.5C150.9 67.517 151.169 67.6108 151.438 67.7812C151.708 67.9517 151.934 68.196 152.116 68.5142C152.298 68.8324 152.389 69.2216 152.389 69.6818C152.389 70.1193 152.289 70.5128 152.09 70.8622C151.892 71.2116 151.578 71.4886 151.149 71.6932C150.72 71.8977 150.161 72 149.474 72H146.32ZM147.377 71.0625H149.474C150.164 71.0625 150.654 70.929 150.944 70.6619C151.237 70.392 151.383 70.0653 151.383 69.6818C151.383 69.3864 151.308 69.1136 151.157 68.8636C151.007 68.6108 150.792 68.4091 150.514 68.2585C150.235 68.1051 149.906 68.0284 149.525 68.0284H147.377V71.0625ZM147.377 67.108H149.338C149.656 67.108 149.943 67.0455 150.198 66.9205C150.457 66.7955 150.661 66.6193 150.812 66.392C150.965 66.1648 151.042 65.8977 151.042 65.5909C151.042 65.2074 150.909 64.8821 150.642 64.6151C150.374 64.3452 149.951 64.2102 149.372 64.2102H147.377V67.108ZM154.125 72V63.2727H157.074C157.756 63.2727 158.316 63.3892 158.753 63.6222C159.191 63.8523 159.514 64.169 159.725 64.5724C159.935 64.9759 160.04 65.4347 160.04 65.9489C160.04 66.4631 159.935 66.919 159.725 67.3168C159.514 67.7145 159.192 68.027 158.757 68.2543C158.323 68.4787 157.767 68.5909 157.091 68.5909H154.705V67.6364H157.057C157.523 67.6364 157.898 67.5682 158.182 67.4318C158.469 67.2955 158.676 67.1023 158.804 66.8523C158.935 66.5994 159 66.2983 159 65.9489C159 65.5994 158.935 65.294 158.804 65.0327C158.673 64.7713 158.465 64.5696 158.178 64.4276C157.891 64.2827 157.512 64.2102 157.04 64.2102H155.182V72H154.125ZM158.233 68.0795L160.381 72H159.154L157.04 68.0795H158.233ZM162.159 72H161.051L164.256 63.2727H165.346L168.551 72H167.443L164.835 64.6534H164.767L162.159 72ZM162.568 68.5909H167.034V69.5284H162.568V68.5909ZM169.621 72V71.233L174.325 64.2102H169.569V63.2727H175.586V64.0398L170.882 71.0625H175.638V72H169.621ZM178.467 63.2727V72H177.41V63.2727H178.467ZM180.586 72V63.2727H181.643V71.0625H185.7V72H180.586Z" fill="white"/>
<path d="M10.8888 72V63.2727H16.1559V64.2102H11.9457V67.1591H15.8832V68.0966H11.9457V71.0625H16.2241V72H10.8888ZM22.8335 65.4545C22.7823 65.0227 22.5749 64.6875 22.2113 64.4489C21.8477 64.2102 21.4016 64.0909 20.8732 64.0909C20.4869 64.0909 20.1488 64.1534 19.859 64.2784C19.5721 64.4034 19.3477 64.5753 19.1857 64.794C19.0266 65.0128 18.9471 65.2614 18.9471 65.5398C18.9471 65.7727 19.0025 65.973 19.1133 66.1406C19.2269 66.3054 19.3718 66.4432 19.5479 66.554C19.7241 66.6619 19.9087 66.7514 20.1019 66.8224C20.2951 66.8906 20.4727 66.946 20.6346 66.9886L21.521 67.2273C21.7482 67.2869 22.0011 67.3693 22.2795 67.4744C22.5607 67.5795 22.8292 67.723 23.0849 67.9048C23.3434 68.0838 23.5565 68.3139 23.7241 68.5952C23.8917 68.8764 23.9755 69.2216 23.9755 69.6307C23.9755 70.1023 23.8519 70.5284 23.6048 70.9091C23.3604 71.2898 23.0025 71.5923 22.5309 71.8168C22.0621 72.0412 21.4925 72.1534 20.8221 72.1534C20.1971 72.1534 19.6559 72.0526 19.1985 71.8509C18.744 71.6491 18.386 71.3679 18.1246 71.0071C17.8661 70.6463 17.7198 70.2273 17.6857 69.75H18.7766C18.805 70.0795 18.9158 70.3523 19.109 70.5682C19.305 70.7812 19.5522 70.9403 19.8505 71.0455C20.1516 71.1477 20.4755 71.1989 20.8221 71.1989C21.2255 71.1989 21.5877 71.1335 21.9087 71.0028C22.2298 70.8693 22.484 70.6847 22.6715 70.4489C22.859 70.2102 22.9528 69.9318 22.9528 69.6136C22.9528 69.3239 22.8718 69.0881 22.7099 68.9062C22.5479 68.7244 22.3349 68.5767 22.0707 68.4631C21.8065 68.3494 21.521 68.25 21.2141 68.1648L20.1403 67.858C19.4585 67.6619 18.9187 67.3821 18.521 67.0185C18.1232 66.6548 17.9244 66.179 17.9244 65.5909C17.9244 65.1023 18.0565 64.6761 18.3207 64.3125C18.5877 63.946 18.9457 63.6619 19.3945 63.4602C19.8462 63.2557 20.3505 63.1534 20.9073 63.1534C21.4698 63.1534 21.9698 63.2543 22.4073 63.456C22.8448 63.6548 23.1914 63.9276 23.4471 64.2741C23.7056 64.6207 23.842 65.0142 23.8562 65.4545H22.8335ZM25.2358 64.2102V63.2727H31.7812V64.2102H29.0369V72H27.9801V64.2102H25.2358ZM33.5987 72.0682C33.3885 72.0682 33.2081 71.9929 33.0575 71.8423C32.907 71.6918 32.8317 71.5114 32.8317 71.3011C32.8317 71.0909 32.907 70.9105 33.0575 70.7599C33.2081 70.6094 33.3885 70.5341 33.5987 70.5341C33.8089 70.5341 33.9893 70.6094 34.1399 70.7599C34.2905 70.9105 34.3658 71.0909 34.3658 71.3011C34.3658 71.4403 34.3303 71.5682 34.2592 71.6847C34.1911 71.8011 34.0987 71.8949 33.9822 71.9659C33.8686 72.0341 33.7408 72.0682 33.5987 72.0682ZM39.5284 72V71.233L42.4091 68.0795C42.7472 67.7102 43.0256 67.3892 43.2443 67.1165C43.4631 66.8409 43.625 66.5824 43.7301 66.3409C43.8381 66.0966 43.892 65.8409 43.892 65.5739C43.892 65.267 43.8182 65.0014 43.6705 64.777C43.5256 64.5526 43.3267 64.3793 43.0739 64.2571C42.821 64.1349 42.5369 64.0739 42.2216 64.0739C41.8864 64.0739 41.5938 64.1435 41.3438 64.2827C41.0966 64.419 40.9048 64.6108 40.7685 64.858C40.6349 65.1051 40.5682 65.3949 40.5682 65.7273H39.5625C39.5625 65.2159 39.6804 64.767 39.9162 64.3807C40.152 63.9943 40.473 63.6932 40.8793 63.4773C41.2884 63.2614 41.7472 63.1534 42.2557 63.1534C42.767 63.1534 43.2202 63.2614 43.6151 63.4773C44.0099 63.6932 44.3196 63.9844 44.544 64.3509C44.7685 64.7173 44.8807 65.125 44.8807 65.5739C44.8807 65.8949 44.8224 66.2088 44.706 66.5156C44.5923 66.8196 44.3935 67.1591 44.1094 67.5341C43.8281 67.9062 43.4375 68.3608 42.9375 68.8977L40.9773 70.9943V71.0625H45.0341V72H39.5284ZM49.6406 72.1193C48.9986 72.1193 48.4517 71.9446 48 71.5952C47.5483 71.2429 47.2031 70.733 46.9645 70.0653C46.7259 69.3949 46.6065 68.5852 46.6065 67.6364C46.6065 66.6932 46.7259 65.8878 46.9645 65.2202C47.206 64.5497 47.5526 64.0384 48.0043 63.6861C48.4588 63.331 49.0043 63.1534 49.6406 63.1534C50.277 63.1534 50.821 63.331 51.2727 63.6861C51.7273 64.0384 52.0739 64.5497 52.3125 65.2202C52.554 65.8878 52.6747 66.6932 52.6747 67.6364C52.6747 68.5852 52.5554 69.3949 52.3168 70.0653C52.0781 70.733 51.733 71.2429 51.2812 71.5952C50.8295 71.9446 50.2827 72.1193 49.6406 72.1193ZM49.6406 71.1818C50.277 71.1818 50.7713 70.875 51.1236 70.2614C51.4759 69.6477 51.652 68.7727 51.652 67.6364C51.652 66.8807 51.571 66.2372 51.4091 65.706C51.25 65.1747 51.0199 64.7699 50.7188 64.4915C50.4205 64.2131 50.0611 64.0739 49.6406 64.0739C49.0099 64.0739 48.517 64.3849 48.1619 65.0071C47.8068 65.6264 47.6293 66.5028 47.6293 67.6364C47.6293 68.392 47.7088 69.0341 47.8679 69.5625C48.027 70.0909 48.2557 70.4929 48.554 70.7685C48.8551 71.044 49.2173 71.1818 49.6406 71.1818ZM54.294 72V71.233L57.1747 68.0795C57.5128 67.7102 57.7912 67.3892 58.0099 67.1165C58.2287 66.8409 58.3906 66.5824 58.4957 66.3409C58.6037 66.0966 58.6577 65.8409 58.6577 65.5739C58.6577 65.267 58.5838 65.0014 58.4361 64.777C58.2912 64.5526 58.0923 64.3793 57.8395 64.2571C57.5866 64.1349 57.3026 64.0739 56.9872 64.0739C56.652 64.0739 56.3594 64.1435 56.1094 64.2827C55.8622 64.419 55.6705 64.6108 55.5341 64.858C55.4006 65.1051 55.3338 65.3949 55.3338 65.7273H54.3281C54.3281 65.2159 54.446 64.767 54.6818 64.3807C54.9176 63.9943 55.2386 63.6932 55.6449 63.4773C56.054 63.2614 56.5128 63.1534 57.0213 63.1534C57.5327 63.1534 57.9858 63.2614 58.3807 63.4773C58.7756 63.6932 59.0852 63.9844 59.3097 64.3509C59.5341 64.7173 59.6463 65.125 59.6463 65.5739C59.6463 65.8949 59.5881 66.2088 59.4716 66.5156C59.358 66.8196 59.1591 67.1591 58.875 67.5341C58.5938 67.9062 58.2031 68.3608 57.7031 68.8977L55.7429 70.9943V71.0625H59.7997V72H54.294ZM61.1676 70.2102V69.3409L65.0028 63.2727H65.6335V64.6193H65.2074L62.3097 69.2045V69.2727H67.4744V70.2102H61.1676ZM65.2756 72V69.946V69.5412V63.2727H66.2812V72H65.2756Z" fill="black" fill-opacity="0.95"/>
<path d="M10.8888 72V63.2727H16.1559V64.2102H11.9457V67.1591H15.8832V68.0966H11.9457V71.0625H16.2241V72H10.8888ZM22.8335 65.4545C22.7823 65.0227 22.5749 64.6875 22.2113 64.4489C21.8477 64.2102 21.4016 64.0909 20.8732 64.0909C20.4869 64.0909 20.1488 64.1534 19.859 64.2784C19.5721 64.4034 19.3477 64.5753 19.1857 64.794C19.0266 65.0128 18.9471 65.2614 18.9471 65.5398C18.9471 65.7727 19.0025 65.973 19.1133 66.1406C19.2269 66.3054 19.3718 66.4432 19.5479 66.554C19.7241 66.6619 19.9087 66.7514 20.1019 66.8224C20.2951 66.8906 20.4727 66.946 20.6346 66.9886L21.521 67.2273C21.7482 67.2869 22.0011 67.3693 22.2795 67.4744C22.5607 67.5795 22.8292 67.723 23.0849 67.9048C23.3434 68.0838 23.5565 68.3139 23.7241 68.5952C23.8917 68.8764 23.9755 69.2216 23.9755 69.6307C23.9755 70.1023 23.8519 70.5284 23.6048 70.9091C23.3604 71.2898 23.0025 71.5923 22.5309 71.8168C22.0621 72.0412 21.4925 72.1534 20.8221 72.1534C20.1971 72.1534 19.6559 72.0526 19.1985 71.8509C18.744 71.6491 18.386 71.3679 18.1246 71.0071C17.8661 70.6463 17.7198 70.2273 17.6857 69.75H18.7766C18.805 70.0795 18.9158 70.3523 19.109 70.5682C19.305 70.7812 19.5522 70.9403 19.8505 71.0455C20.1516 71.1477 20.4755 71.1989 20.8221 71.1989C21.2255 71.1989 21.5877 71.1335 21.9087 71.0028C22.2298 70.8693 22.484 70.6847 22.6715 70.4489C22.859 70.2102 22.9528 69.9318 22.9528 69.6136C22.9528 69.3239 22.8718 69.0881 22.7099 68.9062C22.5479 68.7244 22.3349 68.5767 22.0707 68.4631C21.8065 68.3494 21.521 68.25 21.2141 68.1648L20.1403 67.858C19.4585 67.6619 18.9187 67.3821 18.521 67.0185C18.1232 66.6548 17.9244 66.179 17.9244 65.5909C17.9244 65.1023 18.0565 64.6761 18.3207 64.3125C18.5877 63.946 18.9457 63.6619 19.3945 63.4602C19.8462 63.2557 20.3505 63.1534 20.9073 63.1534C21.4698 63.1534 21.9698 63.2543 22.4073 63.456C22.8448 63.6548 23.1914 63.9276 23.4471 64.2741C23.7056 64.6207 23.842 65.0142 23.8562 65.4545H22.8335ZM25.2358 64.2102V63.2727H31.7812V64.2102H29.0369V72H27.9801V64.2102H25.2358ZM33.5987 72.0682C33.3885 72.0682 33.2081 71.9929 33.0575 71.8423C32.907 71.6918 32.8317 71.5114 32.8317 71.3011C32.8317 71.0909 32.907 70.9105 33.0575 70.7599C33.2081 70.6094 33.3885 70.5341 33.5987 70.5341C33.8089 70.5341 33.9893 70.6094 34.1399 70.7599C34.2905 70.9105 34.3658 71.0909 34.3658 71.3011C34.3658 71.4403 34.3303 71.5682 34.2592 71.6847C34.1911 71.8011 34.0987 71.8949 33.9822 71.9659C33.8686 72.0341 33.7408 72.0682 33.5987 72.0682ZM39.5284 72V71.233L42.4091 68.0795C42.7472 67.7102 43.0256 67.3892 43.2443 67.1165C43.4631 66.8409 43.625 66.5824 43.7301 66.3409C43.8381 66.0966 43.892 65.8409 43.892 65.5739C43.892 65.267 43.8182 65.0014 43.6705 64.777C43.5256 64.5526 43.3267 64.3793 43.0739 64.2571C42.821 64.1349 42.5369 64.0739 42.2216 64.0739C41.8864 64.0739 41.5938 64.1435 41.3438 64.2827C41.0966 64.419 40.9048 64.6108 40.7685 64.858C40.6349 65.1051 40.5682 65.3949 40.5682 65.7273H39.5625C39.5625 65.2159 39.6804 64.767 39.9162 64.3807C40.152 63.9943 40.473 63.6932 40.8793 63.4773C41.2884 63.2614 41.7472 63.1534 42.2557 63.1534C42.767 63.1534 43.2202 63.2614 43.6151 63.4773C44.0099 63.6932 44.3196 63.9844 44.544 64.3509C44.7685 64.7173 44.8807 65.125 44.8807 65.5739C44.8807 65.8949 44.8224 66.2088 44.706 66.5156C44.5923 66.8196 44.3935 67.1591 44.1094 67.5341C43.8281 67.9062 43.4375 68.3608 42.9375 68.8977L40.9773 70.9943V71.0625H45.0341V72H39.5284ZM49.6406 72.1193C48.9986 72.1193 48.4517 71.9446 48 71.5952C47.5483 71.2429 47.2031 70.733 46.9645 70.0653C46.7259 69.3949 46.6065 68.5852 46.6065 67.6364C46.6065 66.6932 46.7259 65.8878 46.9645 65.2202C47.206 64.5497 47.5526 64.0384 48.0043 63.6861C48.4588 63.331 49.0043 63.1534 49.6406 63.1534C50.277 63.1534 50.821 63.331 51.2727 63.6861C51.7273 64.0384 52.0739 64.5497 52.3125 65.2202C52.554 65.8878 52.6747 66.6932 52.6747 67.6364C52.6747 68.5852 52.5554 69.3949 52.3168 70.0653C52.0781 70.733 51.733 71.2429 51.2812 71.5952C50.8295 71.9446 50.2827 72.1193 49.6406 72.1193ZM49.6406 71.1818C50.277 71.1818 50.7713 70.875 51.1236 70.2614C51.4759 69.6477 51.652 68.7727 51.652 67.6364C51.652 66.8807 51.571 66.2372 51.4091 65.706C51.25 65.1747 51.0199 64.7699 50.7188 64.4915C50.4205 64.2131 50.0611 64.0739 49.6406 64.0739C49.0099 64.0739 48.517 64.3849 48.1619 65.0071C47.8068 65.6264 47.6293 66.5028 47.6293 67.6364C47.6293 68.392 47.7088 69.0341 47.8679 69.5625C48.027 70.0909 48.2557 70.4929 48.554 70.7685C48.8551 71.044 49.2173 71.1818 49.6406 71.1818ZM54.294 72V71.233L57.1747 68.0795C57.5128 67.7102 57.7912 67.3892 58.0099 67.1165C58.2287 66.8409 58.3906 66.5824 58.4957 66.3409C58.6037 66.0966 58.6577 65.8409 58.6577 65.5739C58.6577 65.267 58.5838 65.0014 58.4361 64.777C58.2912 64.5526 58.0923 64.3793 57.8395 64.2571C57.5866 64.1349 57.3026 64.0739 56.9872 64.0739C56.652 64.0739 56.3594 64.1435 56.1094 64.2827C55.8622 64.419 55.6705 64.6108 55.5341 64.858C55.4006 65.1051 55.3338 65.3949 55.3338 65.7273H54.3281C54.3281 65.2159 54.446 64.767 54.6818 64.3807C54.9176 63.9943 55.2386 63.6932 55.6449 63.4773C56.054 63.2614 56.5128 63.1534 57.0213 63.1534C57.5327 63.1534 57.9858 63.2614 58.3807 63.4773C58.7756 63.6932 59.0852 63.9844 59.3097 64.3509C59.5341 64.7173 59.6463 65.125 59.6463 65.5739C59.6463 65.8949 59.5881 66.2088 59.4716 66.5156C59.358 66.8196 59.1591 67.1591 58.875 67.5341C58.5938 67.9062 58.2031 68.3608 57.7031 68.8977L55.7429 70.9943V71.0625H59.7997V72H54.294ZM61.1676 70.2102V69.3409L65.0028 63.2727H65.6335V64.6193H65.2074L62.3097 69.2045V69.2727H67.4744V70.2102H61.1676ZM65.2756 72V69.946V69.5412V63.2727H66.2812V72H65.2756Z" fill="white"/>
<path d="M18.3633 13H15.6701V4.27273H18.4826C19.3292 4.27273 20.0536 4.44744 20.6559 4.79688C21.2582 5.14347 21.7198 5.64205 22.0408 6.29261C22.3619 6.94034 22.5224 7.71591 22.5224 8.61932C22.5224 9.52841 22.3604 10.3111 22.0366 10.9673C21.7127 11.6207 21.2411 12.1236 20.6218 12.4759C20.0025 12.8253 19.2496 13 18.3633 13ZM16.7269 12.0625H18.2951C19.0167 12.0625 19.6147 11.9233 20.0891 11.6449C20.5636 11.3665 20.9173 10.9702 21.1502 10.456C21.3832 9.94176 21.4996 9.32955 21.4996 8.61932C21.4996 7.91477 21.3846 7.30824 21.1545 6.79972C20.9244 6.28835 20.5806 5.89631 20.1232 5.62358C19.6658 5.34801 19.0962 5.21023 18.4144 5.21023H16.7269V12.0625ZM24.2429 13H23.1349L26.3395 4.27273H27.4304L30.6349 13H29.527L26.919 5.65341H26.8509L24.2429 13ZM24.652 9.59091H29.1179V10.5284H24.652V9.59091ZM30.4975 5.21023V4.27273H37.043V5.21023H34.2987V13H33.2418V5.21023H30.4975ZM38.0124 13H36.9045L40.109 4.27273H41.1999L44.4045 13H43.2965L40.6886 5.65341H40.6204L38.0124 13ZM38.4215 9.59091H42.8874V10.5284H38.4215V9.59091ZM50.1957 4.27273V13H49.1388V4.27273H50.1957ZM59.2351 4.27273V13H58.2124L53.4567 6.14773H53.3714V13H52.3146V4.27273H53.3374L58.1101 11.142H58.1953V4.27273H59.2351ZM60.8725 5.21023V4.27273H67.418V5.21023H64.6737V13H63.6168V5.21023H60.8725ZM69.049 13V4.27273H74.3161V5.21023H70.1058V8.15909H74.0433V9.09659H70.1058V12.0625H74.3842V13H69.049ZM76.2209 13V4.27273H79.1697C79.8516 4.27273 80.4112 4.3892 80.8487 4.62216C81.2862 4.85227 81.6101 5.16903 81.8203 5.57244C82.0305 5.97585 82.1357 6.43466 82.1357 6.94886C82.1357 7.46307 82.0305 7.91903 81.8203 8.31676C81.6101 8.71449 81.2876 9.02699 80.853 9.25426C80.4183 9.47869 79.8629 9.59091 79.1868 9.59091H76.8004V8.63636H79.1527C79.6186 8.63636 79.9936 8.56818 80.2777 8.43182C80.5646 8.29545 80.772 8.10227 80.8999 7.85227C81.0305 7.59943 81.0959 7.2983 81.0959 6.94886C81.0959 6.59943 81.0305 6.29403 80.8999 6.03267C80.7692 5.77131 80.5604 5.5696 80.2734 5.42756C79.9865 5.28267 79.6072 5.21023 79.1357 5.21023H77.2777V13H76.2209ZM80.3288 9.07955L82.4766 13H81.2493L79.1357 9.07955H80.3288ZM90.9194 7H89.8626C89.8001 6.69602 89.6907 6.42898 89.5344 6.19886C89.381 5.96875 89.1935 5.77557 88.9719 5.61932C88.7532 5.46023 88.5103 5.34091 88.2433 5.26136C87.9762 5.18182 87.6978 5.14205 87.408 5.14205C86.8796 5.14205 86.4009 5.27557 85.9719 5.54261C85.5458 5.80966 85.2063 6.20312 84.9535 6.72301C84.7035 7.2429 84.5785 7.88068 84.5785 8.63636C84.5785 9.39205 84.7035 10.0298 84.9535 10.5497C85.2063 11.0696 85.5458 11.4631 85.9719 11.7301C86.4009 11.9972 86.8796 12.1307 87.408 12.1307C87.6978 12.1307 87.9762 12.0909 88.2433 12.0114C88.5103 11.9318 88.7532 11.8139 88.9719 11.6577C89.1935 11.4986 89.381 11.304 89.5344 11.0739C89.6907 10.8409 89.8001 10.5739 89.8626 10.2727H90.9194C90.8398 10.7187 90.695 11.1179 90.4847 11.4702C90.2745 11.8224 90.0131 12.1222 89.7006 12.3693C89.3881 12.6136 89.0373 12.7997 88.6481 12.9276C88.2617 13.0554 87.8484 13.1193 87.408 13.1193C86.6637 13.1193 86.0018 12.9375 85.4222 12.5739C84.8427 12.2102 84.3867 11.6932 84.0543 11.0227C83.7219 10.3523 83.5558 9.55682 83.5558 8.63636C83.5558 7.71591 83.7219 6.92045 84.0543 6.25C84.3867 5.57955 84.8427 5.0625 85.4222 4.69886C86.0018 4.33523 86.6637 4.15341 87.408 4.15341C87.8484 4.15341 88.2617 4.21733 88.6481 4.34517C89.0373 4.47301 89.3881 4.66051 89.7006 4.90767C90.0131 5.15199 90.2745 5.45028 90.4847 5.80256C90.695 6.15199 90.8398 6.55114 90.9194 7ZM92.6271 13V4.27273H93.6839V8.15909H98.3374V4.27273H99.3942V13H98.3374V9.09659H93.6839V13H92.6271ZM101.868 13H100.76L103.964 4.27273H105.055L108.26 13H107.152L104.544 5.65341H104.476L101.868 13ZM102.277 9.59091H106.743V10.5284H102.277V9.59091ZM116.54 4.27273V13H115.517L110.761 6.14773H110.676V13H109.619V4.27273H110.642L115.415 11.142H115.5V4.27273H116.54ZM124.62 7C124.527 6.71307 124.403 6.45597 124.25 6.22869C124.099 5.99858 123.919 5.80256 123.708 5.64062C123.501 5.47869 123.265 5.35511 123.001 5.26989C122.737 5.18466 122.447 5.14205 122.132 5.14205C121.615 5.14205 121.145 5.27557 120.721 5.54261C120.298 5.80966 119.961 6.20312 119.711 6.72301C119.461 7.2429 119.336 7.88068 119.336 8.63636C119.336 9.39205 119.463 10.0298 119.716 10.5497C119.968 11.0696 120.311 11.4631 120.743 11.7301C121.174 11.9972 121.66 12.1307 122.2 12.1307C122.7 12.1307 123.14 12.0241 123.521 11.8111C123.904 11.5952 124.203 11.2912 124.416 10.8991C124.632 10.5043 124.74 10.0398 124.74 9.50568L125.064 9.57386H122.439V8.63636H125.762V9.57386C125.762 10.2926 125.609 10.9176 125.302 11.4489C124.998 11.9801 124.578 12.392 124.041 12.6847C123.507 12.9744 122.893 13.1193 122.2 13.1193C121.427 13.1193 120.748 12.9375 120.163 12.5739C119.581 12.2102 119.126 11.6932 118.799 11.0227C118.475 10.3523 118.314 9.55682 118.314 8.63636C118.314 7.94602 118.406 7.32528 118.591 6.77415C118.778 6.22017 119.042 5.74858 119.383 5.35938C119.724 4.97017 120.127 4.67188 120.593 4.46449C121.059 4.2571 121.572 4.15341 122.132 4.15341C122.592 4.15341 123.021 4.22301 123.419 4.36222C123.819 4.49858 124.176 4.69318 124.488 4.94602C124.804 5.19602 125.066 5.49574 125.277 5.84517C125.487 6.19176 125.632 6.5767 125.711 7H124.62ZM127.572 13V4.27273H132.839V5.21023H128.629V8.15909H132.567V9.09659H128.629V12.0625H132.908V13H127.572ZM138.119 13V4.27273H143.352V5.21023H139.176V8.15909H142.96V9.09659H139.176V13H138.119ZM152.526 8.63636C152.526 9.55682 152.36 10.3523 152.027 11.0227C151.695 11.6932 151.239 12.2102 150.659 12.5739C150.08 12.9375 149.418 13.1193 148.674 13.1193C147.929 13.1193 147.267 12.9375 146.688 12.5739C146.108 12.2102 145.652 11.6932 145.32 11.0227C144.988 10.3523 144.821 9.55682 144.821 8.63636C144.821 7.71591 144.988 6.92045 145.32 6.25C145.652 5.57955 146.108 5.0625 146.688 4.69886C147.267 4.33523 147.929 4.15341 148.674 4.15341C149.418 4.15341 150.08 4.33523 150.659 4.69886C151.239 5.0625 151.695 5.57955 152.027 6.25C152.36 6.92045 152.526 7.71591 152.526 8.63636ZM151.503 8.63636C151.503 7.88068 151.377 7.2429 151.124 6.72301C150.874 6.20312 150.534 5.80966 150.105 5.54261C149.679 5.27557 149.202 5.14205 148.674 5.14205C148.145 5.14205 147.667 5.27557 147.238 5.54261C146.811 5.80966 146.472 6.20312 146.219 6.72301C145.969 7.2429 145.844 7.88068 145.844 8.63636C145.844 9.39205 145.969 10.0298 146.219 10.5497C146.472 11.0696 146.811 11.4631 147.238 11.7301C147.667 11.9972 148.145 12.1307 148.674 12.1307C149.202 12.1307 149.679 11.9972 150.105 11.7301C150.534 11.4631 150.874 11.0696 151.124 10.5497C151.377 10.0298 151.503 9.39205 151.503 8.63636ZM154.303 13V4.27273H157.252C157.934 4.27273 158.493 4.3892 158.931 4.62216C159.368 4.85227 159.692 5.16903 159.902 5.57244C160.113 5.97585 160.218 6.43466 160.218 6.94886C160.218 7.46307 160.113 7.91903 159.902 8.31676C159.692 8.71449 159.37 9.02699 158.935 9.25426C158.5 9.47869 157.945 9.59091 157.269 9.59091H154.882V8.63636H157.235C157.701 8.63636 158.076 8.56818 158.36 8.43182C158.647 8.29545 158.854 8.10227 158.982 7.85227C159.113 7.59943 159.178 7.2983 159.178 6.94886C159.178 6.59943 159.113 6.29403 158.982 6.03267C158.851 5.77131 158.642 5.5696 158.355 5.42756C158.069 5.28267 157.689 5.21023 157.218 5.21023H155.36V13H154.303ZM158.411 9.07955L160.559 13H159.331L157.218 9.07955H158.411ZM161.979 4.27273H163.24L166.206 11.517H166.308L169.274 4.27273H170.536V13H169.547V6.36932H169.462L166.734 13H165.78L163.053 6.36932H162.967V13H161.979V4.27273ZM173.012 13H171.904L175.109 4.27273H176.2L179.404 13H178.297L175.689 5.65341H175.62L173.012 13ZM173.422 9.59091H177.887V10.5284H173.422V9.59091ZM179.267 5.21023V4.27273H185.812V5.21023H183.068V13H182.011V5.21023H179.267Z" fill="black" fill-opacity="0.95"/>
<path d="M18.3633 13H15.6701V4.27273H18.4826C19.3292 4.27273 20.0536 4.44744 20.6559 4.79688C21.2582 5.14347 21.7198 5.64205 22.0408 6.29261C22.3619 6.94034 22.5224 7.71591 22.5224 8.61932C22.5224 9.52841 22.3604 10.3111 22.0366 10.9673C21.7127 11.6207 21.2411 12.1236 20.6218 12.4759C20.0025 12.8253 19.2496 13 18.3633 13ZM16.7269 12.0625H18.2951C19.0167 12.0625 19.6147 11.9233 20.0891 11.6449C20.5636 11.3665 20.9173 10.9702 21.1502 10.456C21.3832 9.94176 21.4996 9.32955 21.4996 8.61932C21.4996 7.91477 21.3846 7.30824 21.1545 6.79972C20.9244 6.28835 20.5806 5.89631 20.1232 5.62358C19.6658 5.34801 19.0962 5.21023 18.4144 5.21023H16.7269V12.0625ZM24.2429 13H23.1349L26.3395 4.27273H27.4304L30.6349 13H29.527L26.919 5.65341H26.8509L24.2429 13ZM24.652 9.59091H29.1179V10.5284H24.652V9.59091ZM30.4975 5.21023V4.27273H37.043V5.21023H34.2987V13H33.2418V5.21023H30.4975ZM38.0124 13H36.9045L40.109 4.27273H41.1999L44.4045 13H43.2965L40.6886 5.65341H40.6204L38.0124 13ZM38.4215 9.59091H42.8874V10.5284H38.4215V9.59091ZM50.1957 4.27273V13H49.1388V4.27273H50.1957ZM59.2351 4.27273V13H58.2124L53.4567 6.14773H53.3714V13H52.3146V4.27273H53.3374L58.1101 11.142H58.1953V4.27273H59.2351ZM60.8725 5.21023V4.27273H67.418V5.21023H64.6737V13H63.6168V5.21023H60.8725ZM69.049 13V4.27273H74.3161V5.21023H70.1058V8.15909H74.0433V9.09659H70.1058V12.0625H74.3842V13H69.049ZM76.2209 13V4.27273H79.1697C79.8516 4.27273 80.4112 4.3892 80.8487 4.62216C81.2862 4.85227 81.6101 5.16903 81.8203 5.57244C82.0305 5.97585 82.1357 6.43466 82.1357 6.94886C82.1357 7.46307 82.0305 7.91903 81.8203 8.31676C81.6101 8.71449 81.2876 9.02699 80.853 9.25426C80.4183 9.47869 79.8629 9.59091 79.1868 9.59091H76.8004V8.63636H79.1527C79.6186 8.63636 79.9936 8.56818 80.2777 8.43182C80.5646 8.29545 80.772 8.10227 80.8999 7.85227C81.0305 7.59943 81.0959 7.2983 81.0959 6.94886C81.0959 6.59943 81.0305 6.29403 80.8999 6.03267C80.7692 5.77131 80.5604 5.5696 80.2734 5.42756C79.9865 5.28267 79.6072 5.21023 79.1357 5.21023H77.2777V13H76.2209ZM80.3288 9.07955L82.4766 13H81.2493L79.1357 9.07955H80.3288ZM90.9194 7H89.8626C89.8001 6.69602 89.6907 6.42898 89.5344 6.19886C89.381 5.96875 89.1935 5.77557 88.9719 5.61932C88.7532 5.46023 88.5103 5.34091 88.2433 5.26136C87.9762 5.18182 87.6978 5.14205 87.408 5.14205C86.8796 5.14205 86.4009 5.27557 85.9719 5.54261C85.5458 5.80966 85.2063 6.20312 84.9535 6.72301C84.7035 7.2429 84.5785 7.88068 84.5785 8.63636C84.5785 9.39205 84.7035 10.0298 84.9535 10.5497C85.2063 11.0696 85.5458 11.4631 85.9719 11.7301C86.4009 11.9972 86.8796 12.1307 87.408 12.1307C87.6978 12.1307 87.9762 12.0909 88.2433 12.0114C88.5103 11.9318 88.7532 11.8139 88.9719 11.6577C89.1935 11.4986 89.381 11.304 89.5344 11.0739C89.6907 10.8409 89.8001 10.5739 89.8626 10.2727H90.9194C90.8398 10.7187 90.695 11.1179 90.4847 11.4702C90.2745 11.8224 90.0131 12.1222 89.7006 12.3693C89.3881 12.6136 89.0373 12.7997 88.6481 12.9276C88.2617 13.0554 87.8484 13.1193 87.408 13.1193C86.6637 13.1193 86.0018 12.9375 85.4222 12.5739C84.8427 12.2102 84.3867 11.6932 84.0543 11.0227C83.7219 10.3523 83.5558 9.55682 83.5558 8.63636C83.5558 7.71591 83.7219 6.92045 84.0543 6.25C84.3867 5.57955 84.8427 5.0625 85.4222 4.69886C86.0018 4.33523 86.6637 4.15341 87.408 4.15341C87.8484 4.15341 88.2617 4.21733 88.6481 4.34517C89.0373 4.47301 89.3881 4.66051 89.7006 4.90767C90.0131 5.15199 90.2745 5.45028 90.4847 5.80256C90.695 6.15199 90.8398 6.55114 90.9194 7ZM92.6271 13V4.27273H93.6839V8.15909H98.3374V4.27273H99.3942V13H98.3374V9.09659H93.6839V13H92.6271ZM101.868 13H100.76L103.964 4.27273H105.055L108.26 13H107.152L104.544 5.65341H104.476L101.868 13ZM102.277 9.59091H106.743V10.5284H102.277V9.59091ZM116.54 4.27273V13H115.517L110.761 6.14773H110.676V13H109.619V4.27273H110.642L115.415 11.142H115.5V4.27273H116.54ZM124.62 7C124.527 6.71307 124.403 6.45597 124.25 6.22869C124.099 5.99858 123.919 5.80256 123.708 5.64062C123.501 5.47869 123.265 5.35511 123.001 5.26989C122.737 5.18466 122.447 5.14205 122.132 5.14205C121.615 5.14205 121.145 5.27557 120.721 5.54261C120.298 5.80966 119.961 6.20312 119.711 6.72301C119.461 7.2429 119.336 7.88068 119.336 8.63636C119.336 9.39205 119.463 10.0298 119.716 10.5497C119.968 11.0696 120.311 11.4631 120.743 11.7301C121.174 11.9972 121.66 12.1307 122.2 12.1307C122.7 12.1307 123.14 12.0241 123.521 11.8111C123.904 11.5952 124.203 11.2912 124.416 10.8991C124.632 10.5043 124.74 10.0398 124.74 9.50568L125.064 9.57386H122.439V8.63636H125.762V9.57386C125.762 10.2926 125.609 10.9176 125.302 11.4489C124.998 11.9801 124.578 12.392 124.041 12.6847C123.507 12.9744 122.893 13.1193 122.2 13.1193C121.427 13.1193 120.748 12.9375 120.163 12.5739C119.581 12.2102 119.126 11.6932 118.799 11.0227C118.475 10.3523 118.314 9.55682 118.314 8.63636C118.314 7.94602 118.406 7.32528 118.591 6.77415C118.778 6.22017 119.042 5.74858 119.383 5.35938C119.724 4.97017 120.127 4.67188 120.593 4.46449C121.059 4.2571 121.572 4.15341 122.132 4.15341C122.592 4.15341 123.021 4.22301 123.419 4.36222C123.819 4.49858 124.176 4.69318 124.488 4.94602C124.804 5.19602 125.066 5.49574 125.277 5.84517C125.487 6.19176 125.632 6.5767 125.711 7H124.62ZM127.572 13V4.27273H132.839V5.21023H128.629V8.15909H132.567V9.09659H128.629V12.0625H132.908V13H127.572ZM138.119 13V4.27273H143.352V5.21023H139.176V8.15909H142.96V9.09659H139.176V13H138.119ZM152.526 8.63636C152.526 9.55682 152.36 10.3523 152.027 11.0227C151.695 11.6932 151.239 12.2102 150.659 12.5739C150.08 12.9375 149.418 13.1193 148.674 13.1193C147.929 13.1193 147.267 12.9375 146.688 12.5739C146.108 12.2102 145.652 11.6932 145.32 11.0227C144.988 10.3523 144.821 9.55682 144.821 8.63636C144.821 7.71591 144.988 6.92045 145.32 6.25C145.652 5.57955 146.108 5.0625 146.688 4.69886C147.267 4.33523 147.929 4.15341 148.674 4.15341C149.418 4.15341 150.08 4.33523 150.659 4.69886C151.239 5.0625 151.695 5.57955 152.027 6.25C152.36 6.92045 152.526 7.71591 152.526 8.63636ZM151.503 8.63636C151.503 7.88068 151.377 7.2429 151.124 6.72301C150.874 6.20312 150.534 5.80966 150.105 5.54261C149.679 5.27557 149.202 5.14205 148.674 5.14205C148.145 5.14205 147.667 5.27557 147.238 5.54261C146.811 5.80966 146.472 6.20312 146.219 6.72301C145.969 7.2429 145.844 7.88068 145.844 8.63636C145.844 9.39205 145.969 10.0298 146.219 10.5497C146.472 11.0696 146.811 11.4631 147.238 11.7301C147.667 11.9972 148.145 12.1307 148.674 12.1307C149.202 12.1307 149.679 11.9972 150.105 11.7301C150.534 11.4631 150.874 11.0696 151.124 10.5497C151.377 10.0298 151.503 9.39205 151.503 8.63636ZM154.303 13V4.27273H157.252C157.934 4.27273 158.493 4.3892 158.931 4.62216C159.368 4.85227 159.692 5.16903 159.902 5.57244C160.113 5.97585 160.218 6.43466 160.218 6.94886C160.218 7.46307 160.113 7.91903 159.902 8.31676C159.692 8.71449 159.37 9.02699 158.935 9.25426C158.5 9.47869 157.945 9.59091 157.269 9.59091H154.882V8.63636H157.235C157.701 8.63636 158.076 8.56818 158.36 8.43182C158.647 8.29545 158.854 8.10227 158.982 7.85227C159.113 7.59943 159.178 7.2983 159.178 6.94886C159.178 6.59943 159.113 6.29403 158.982 6.03267C158.851 5.77131 158.642 5.5696 158.355 5.42756C158.069 5.28267 157.689 5.21023 157.218 5.21023H155.36V13H154.303ZM158.411 9.07955L160.559 13H159.331L157.218 9.07955H158.411ZM161.979 4.27273H163.24L166.206 11.517H166.308L169.274 4.27273H170.536V13H169.547V6.36932H169.462L166.734 13H165.78L163.053 6.36932H162.967V13H161.979V4.27273ZM173.012 13H171.904L175.109 4.27273H176.2L179.404 13H178.297L175.689 5.65341H175.62L173.012 13ZM173.422 9.59091H177.887V10.5284H173.422V9.59091ZM179.267 5.21023V4.27273H185.812V5.21023H183.068V13H182.011V5.21023H179.267Z" fill="white"/>
</svg>
